PathFileType	4	(X/Y/Z)	c:/Users/goper/Files/vsCode/490R/osim_files/A04/A04_Fast_04.trc
DataRate	CameraRate	NumFrames	NumMarkers	Units                	OrigDataRate	OrigDataStartFrame	OrigNumFrames
120.00	120.00	7	36	mm	120.0	667	1066
                Frame#	Time	LPSIS			LASIS			LTH1			LTH2			LTH3			LTH4			LLFE			LMFE			LSH1			LSH2			LSH3			LSH4			LLMAL			LMMAL			LCAL			LMTP5			LTOE			LMTP1			RPSIS			RASIS			RTH1			RTH2			RTH3			RTH4			RLFE			RMFE			RSH1			RSH2			RSH3			RSH4			RLMAL			RMMAL			RCAL			RMTP1			RTOE			RMTP5		
		X1	Y1	Z1	X2	Y2	Z2	X3	Y3	Z3	X4	Y4	Z4	X5	Y5	Z5	X6	Y6	Z6	X7	Y7	Z7	X8	Y8	Z8	X9	Y9	Z9	X10	Y10	Z10	X11	Y11	Z11	X12	Y12	Z12	X13	Y13	Z13	X14	Y14	Z14	X15	Y15	Z15	X16	Y16	Z16	X17	Y17	Z17	X18	Y18	Z18	X19	Y19	Z19	X20	Y20	Z20	X21	Y21	Z21	X22	Y22	Z22	X23	Y23	Z23	X24	Y24	Z24	X25	Y25	Z25	X26	Y26	Z26	X27	Y27	Z27	X28	Y28	Z28	X29	Y29	Z29	X30	Y30	Z30	X31	Y31	Z31	X32	Y32	Z32	X33	Y33	Z33	X34	Y34	Z34	X35	Y35	Z35	X36	Y36	Z36

667	5.55000	77.16126	1040.91125	431.98352	-147.36252	984.63177	501.15292	23.94644	692.08142	525.99884	30.39272	647.91644	522.22272	-36.75909	678.71820	519.48431	-22.25254	636.42383	516.84515	47.26327	520.70355	507.94861	22.62475	521.92218	370.24701	104.48357	429.63129	503.12070	108.10912	386.06436	499.78189	43.97338	417.14346	495.12347	56.80095	375.89627	490.65262	204.38600	117.05165	441.76434	176.75212	118.58567	357.90607	266.51987	80.54501	382.31174	69.97345	58.78338	483.19131	16.37705	71.31466	425.96243	32.32599	56.54914	380.59900	84.67713	1025.78271	326.27026	-133.11205	997.41797	215.53879	-141.86986	699.51605	192.28305	-163.90042	663.34625	192.95602	-195.79602	725.76465	176.46747	-212.65562	681.96240	181.65573	-273.34564	562.95868	216.47078	-286.72995	564.19562	335.92325	-314.85056	332.46497	228.82631	-340.21027	293.19772	235.34499	-367.85101	358.04742	214.14421	-384.75989	313.67572	218.75224	-444.37921	128.47932	221.81535	-482.39377	156.53108	349.32898	-425.32074	55.34897	308.33395	-621.62183	171.95026	303.69379	-620.60565	199.87668	256.12247	-596.01056	153.30473	189.11404
668	5.55833	66.08990	1038.66602	430.76578	-158.13405	982.84113	501.50082	15.18062	691.05933	525.99988	22.02328	647.01813	522.16949	-45.30721	677.33759	519.27625	-30.40416	635.12341	516.54974	40.18271	519.91803	507.87479	15.58066	520.78955	370.06442	98.65345	429.68668	502.97498	104.08389	387.19278	499.23239	38.54907	416.42432	494.97604	51.77967	375.27124	490.62396	203.22473	118.36274	441.90659	175.69273	119.82009	357.92993	265.78296	82.28140	382.22864	69.66145	58.70678	483.28162	16.20813	70.31113	425.90359	31.94364	56.23541	380.69888	73.00069	1023.64099	325.03094	-145.62523	995.89954	215.87111	-153.82793	697.50958	192.69952	-175.63145	661.21332	193.71259	-208.78577	723.75970	178.04489	-224.73360	679.60120	183.28239	-283.81345	560.52130	217.72545	-294.90256	561.17426	338.22754	-324.94138	330.14954	230.50424	-350.77194	290.80917	236.90477	-378.45889	355.57449	215.62990	-395.29315	311.28281	220.35606	-455.34464	126.23815	223.94250	-493.05014	154.63197	351.52277	-436.31030	53.22401	310.65891	-631.94135	170.55899	306.31223	-631.20978	198.33891	258.56259	-606.92206	151.55891	191.50974
669	5.56667	54.83831	1036.44409	429.40710	-169.00458	981.01703	501.92560	5.98177	689.95642	526.07550	13.15478	646.05829	522.11847	-54.42371	675.76782	519.00500	-39.06770	633.80792	516.37115	32.69572	519.08466	507.84531	7.94638	519.63684	369.97449	92.50119	429.78674	502.96158	98.52298	387.27048	499.16660	32.53271	415.54083	494.96890	46.77980	374.69406	490.57227	201.95740	119.85239	442.04736	174.28159	120.96785	357.87457	264.92722	84.30613	382.26685	69.20266	58.61067	483.42462	15.59062	69.79330	426.04352	31.55699	55.96312	380.81799	61.55167	1021.73425	323.47681	-158.20284	994.33728	216.30870	-166.12202	695.72284	192.76825	-187.94832	659.39471	194.04723	-221.27461	722.00391	179.19275	-237.32097	677.60461	184.57547	-295.21500	558.60236	218.62317	-303.07809	558.13953	340.18997	-335.05508	327.41031	231.80841	-360.55136	287.97290	238.32843	-388.60718	352.69760	217.12810	-405.35165	308.25009	222.09554	-464.54434	122.94910	226.44067	-501.53561	151.40326	354.14423	-444.68631	50.17439	313.17065	-640.70471	167.03021	310.04172	-640.46423	194.36378	262.00211	-616.27118	147.55634	194.79703
670	5.57500	43.54565	1034.35046	427.97757	-179.81837	979.35925	502.26721	-3.41066	688.96564	525.90833	4.03732	645.05859	522.04651	-63.40418	674.57666	518.93884	-48.22430	632.45251	516.11969	24.69201	518.19861	507.80838	0.03982	518.27429	369.97931	85.91102	429.82220	502.98157	92.50325	387.29684	499.19040	26.23133	414.59183	494.95233	41.07167	373.98172	490.53851	200.57471	121.53231	442.31577	172.79140	122.34515	357.84351	264.21664	86.69751	382.26483	68.71216	58.54269	483.59692	15.45871	68.96069	426.15732	31.15042	55.70955	380.92920	49.39999	1019.64850	322.01981	-170.90404	992.72675	216.74269	-178.95250	694.10986	192.62929	-200.80910	657.74792	194.03937	-234.16122	720.57635	180.12067	-250.03206	676.33618	185.49863	-307.60391	557.10901	219.71750	-312.38000	555.59344	341.65839	-344.55322	324.59415	232.89311	-369.73233	284.82590	239.67619	-398.59146	349.23035	218.79506	-414.77676	304.69540	223.85825	-471.93643	118.76971	228.83188	-507.82162	146.96880	356.94302	-450.09750	46.85475	315.43649	-647.66125	159.85210	313.60052	-648.26849	188.23981	266.22412	-624.31390	141.54524	198.81876
671	5.58333	32.09758	1032.34302	426.39761	-190.81871	977.73352	502.68063	-13.03749	687.94690	525.88904	-5.52220	643.97504	521.93744	-73.12653	673.05426	518.66986	-57.59076	631.04456	515.85156	16.17397	517.19336	507.84421	-8.38987	516.89771	370.01840	78.92752	429.85815	503.03482	86.15637	387.31082	499.19461	19.86119	413.28925	494.89380	35.02984	373.32309	490.58896	199.07678	123.38454	442.62637	171.14110	123.90711	357.94125	263.07010	89.18907	382.47186	68.14472	58.48246	483.83603	14.88101	68.73397	426.34103	30.69755	55.50644	381.02786	37.30199	1017.77545	320.50388	-183.69495	991.13055	217.05507	-192.25716	692.59003	192.41644	-214.17458	656.35681	193.99828	-247.79887	719.30804	180.63916	-263.76965	674.91357	186.61717	-320.19485	555.70380	220.89879	-322.44431	553.69598	342.71622	-353.51825	322.16171	233.64038	-377.96829	281.90955	240.71423	-408.19669	345.93845	220.43002	-423.52267	301.18192	225.67688	-477.77930	114.37161	230.65529	-511.87274	141.50160	359.50351	-451.88284	44.87815	316.01602	-652.57434	150.70042	319.18192	-655.54938	179.96466	272.00977	-631.07239	135.22026	203.68584
672	5.59167	20.42266	1030.39600	424.87393	-202.17519	976.18915	503.00339	-23.46600	686.62775	525.82922	-15.30085	642.92542	521.82648	-83.37672	671.16895	518.36768	-67.33508	629.52991	515.59460	7.21174	516.08313	507.99872	-17.32515	515.36584	370.11655	71.51339	429.89783	503.13028	79.39945	387.26666	499.31677	14.31592	411.33063	494.78864	28.64549	372.63422	490.67953	197.40350	125.43330	442.96417	169.54433	125.70762	358.07986	261.85153	91.99998	382.59595	67.58775	58.44976	484.11081	14.29858	68.31542	426.44791	30.16058	55.31556	381.16858	24.99180	1015.90601	318.89627	-196.70049	989.57532	217.26566	-205.67155	691.15863	192.23201	-227.83517	655.04199	194.03072	-260.96671	718.23212	181.73540	-277.22552	674.04736	187.54561	-332.99527	554.20026	221.92017	-333.96027	552.28137	343.55347	-361.74667	321.51358	233.48326	-385.34497	280.47757	241.12245	-417.11551	344.18762	222.03874	-431.52890	299.04767	227.33842	-482.35052	111.32428	231.82202	-514.27295	136.83997	361.48743	-453.13535	42.80981	316.25223	-657.35132	142.56917	324.09991	-661.66400	171.47949	278.06418	-636.98151	129.54672	208.47456
673	5.60000	8.60711	1028.43506	423.23206	-213.61269	974.62598	503.06860	-33.92574	685.51343	525.64917	-25.48591	641.79932	521.78778	-93.56164	669.96307	518.33008	-77.40951	628.08716	515.55090	-2.15874	514.87628	508.25656	-26.55399	513.70758	370.27017	63.67956	429.92487	503.32889	72.37417	387.33286	499.36035	7.04020	410.13028	494.71158	21.91122	371.74228	490.76093	195.72125	127.68201	443.22763	167.51535	127.62929	358.15958	260.48596	95.18241	382.69443	66.90769	58.48330	484.44727	13.74774	67.81081	426.53558	29.84004	55.08161	381.29016	12.61911	1014.14838	317.31873	-209.89120	988.19226	217.23659	-219.30151	689.67340	192.27046	-241.51315	653.71661	194.39671	-274.53964	717.08649	182.54634	-290.90634	672.89459	188.60078	-345.23712	552.55090	223.10204	-344.78400	550.90247	343.72195	-368.89148	322.87668	233.31982	-391.79807	281.50290	241.02434	-425.34610	344.97006	223.07468	-438.59915	299.53903	228.51083	-486.26743	111.00538	232.41063	-516.00464	134.89275	362.77618	-454.07870	42.68053	315.73657	-659.88098	138.65295	328.33679	-665.97577	167.95372	282.67117	-642.08643	126.40287	212.64769
